<?xml version="1.0" encoding="UTF-8"?>
<svg width="42px" height="42px" viewBox="0 0 42 42" version="1.1" xmlns="http://www.w3.org/2000/svg" xmlns:xlink="http://www.w3.org/1999/xlink">
    <!-- Generator: Sketch 56.3 (81716) - https://sketch.com -->
    <title>分组 9</title>
    <desc>Created with Sketch.</desc>
    <g id="Page-1" stroke="none" stroke-width="1" fill="none" fill-rule="evenodd">
        <g id="首页" transform="translate(-41.000000, -629.000000)" fill-rule="nonzero">
            <g id="分组-3" transform="translate(14.000000, 552.000000)">
                <g id="分组-9" transform="translate(23.000000, 78.000000)">
                    <circle id="椭圆形" stroke="#FFC8CC" fill="#FFEDEE" cx="25" cy="20" r="20"></circle>
                    <g id="youhuiquan-3" transform="translate(13.000000, 11.000000)">
                        <path d="M23.2,6.42222222 C22.4888889,6.6 20.9777778,7.04444444 20.9777778,8.99999998 C20.9777778,11.1333333 22.4888889,11.4888889 23.2,11.5777778 L23.2,15.3111111 C23.2,16.3777778 22.4888889,17.0888889 21.5111111,17.0888889 L2.57777779,17.0888889 C1.6,17.0888889 0.888888856,16.3777778 0.888888856,15.3111111 L0.888888856,11.5777778 C1.59999995,11.4 3.11111109,10.9555556 3.11111109,8.99999998 C3.11111109,7.04444439 1.6,6.51111109 0.888888856,6.42222222 L0.888888856,2.68888889 C0.888888856,1.62222223 1.59999995,0.911111088 2.57777779,0.911111088 L21.5111111,0.911111088 C22.4888889,0.911111088 23.2,1.62222218 23.2,2.68888889 L23.2,6.42222222 L23.2,6.42222222 Z" id="形状" fill="#FD4B4D"></path>
                        <path d="M7,1 L8.05806843,1 L8.05806843,3.92682928 L7,3.92682928 L7,1 Z M7,5.02439024 L8.05806843,5.02439024 L8.05806843,7.95121952 L7,7.95121952 L7,5.02439024 Z M7,13.0731707 L8.05806843,13.0731707 L8.05806843,16 L7,16 L7,13.0731707 Z M7,9.04878048 L8.05806843,9.04878048 L8.05806843,11.9756098 L7,11.9756098 L7,9.04878048 Z M16.522616,4.65853662 C16.3462712,4.65853662 16.3462712,4.56707323 16.2580989,4.47560978 C16.0817541,4.47560978 16.0817541,4.38414639 15.9935818,4.47560978 C15.9054094,4.47560978 14.7591686,6.39634149 14.6709962,6.48780488 C14.5828238,6.67073172 14.4946514,6.76219511 14.4946514,6.85365855 C14.4064791,6.94512194 14.4064791,6.94512194 14.3183067,6.94512194 L14.141962,6.76219511 C14.141962,6.67073172 14.0537896,6.57926827 13.9656172,6.39634149 C13.8774448,6.2134147 12.9075488,4.75000001 12.8193764,4.65853662 C12.5548593,4.38414639 12.4666869,4.20121955 12.3785146,4.38414634 C12.2021698,4.47560973 12.2021698,4.56707318 12.0258251,4.56707318 C11.8494803,4.65853657 11.8494803,4.75000001 11.761308,4.75000001 C11.5849632,4.84146341 11.5849632,5.02439024 11.6731356,5.20731708 C11.9376527,5.57317075 12.2021699,5.93902437 12.3785146,6.30487804 C12.5548593,6.57926827 12.8193764,7.03658534 12.9957212,7.21951222 C13.1720659,7.49390245 13.1720659,7.5853659 13.1720659,7.67682929 C13.1720659,7.76829268 12.9957212,7.85975612 12.9957212,7.85975612 L11.3204461,7.85975612 L11.3204461,9.23170732 L13.5247554,9.23170732 L13.5247554,9.68902438 L11.3204461,9.68902438 L11.3204461,10.7865853 L13.5247554,10.7865853 L13.5247554,12.5243902 L14.5828238,12.5243902 L14.5828238,10.695122 L16.7871331,10.695122 L16.7871331,9.59756099 L14.5828238,9.59756099 L14.5828238,9.14024393 L16.7871331,9.14024393 L16.7871331,7.85975612 L15.4645475,7.85975612 C15.4645475,7.85975612 15.2882028,7.76829273 15.3763752,7.67682929 C15.3763752,7.5853659 15.4645475,7.49390245 15.5527199,7.21951222 C15.7290647,7.03658539 16.4344436,5.84756103 16.6107884,5.57317075 C16.7871331,5.39024391 16.7871331,5.20731708 16.8753054,5.11585368 C16.9634778,4.93292685 17.0516502,4.84146346 16.9634778,4.65853662 C16.8753054,4.93292685 16.6107883,4.75000001 16.522616,4.65853662 L16.522616,4.65853662 Z" id="形状" fill="#FFFFFF"></path>
                    </g>
                </g>
            </g>
        </g>
    </g>
</svg>